<svg width="508" height="499" viewBox="0 0 508 499" fill="none" xmlns="http://www.w3.org/2000/svg">
<g clip-path="url(#clip0_11_298)" filter="url(#filter0_d_11_298)">
<circle cx="311" cy="179" r="150" fill="#6F6CF2"/>
<path d="M64.3282 0C58.7316 0.00628554 53.366 2.2323 49.4087 6.18968C45.4513 10.1471 43.2253 15.5126 43.219 21.1092V468.642C43.2253 474.239 45.4513 479.604 49.4087 483.562C53.366 487.519 58.7316 489.745 64.3282 489.751H260.248C265.844 489.745 271.21 487.519 275.167 483.562C279.124 479.604 281.35 474.239 281.357 468.642V21.1092C281.351 15.5126 279.125 10.1471 275.167 6.18968C271.21 2.2323 265.844 0.00628554 260.248 0H64.3282Z" fill="#E6E6E6"/>
<path d="M268.299 103.555V67.6431C257.143 65.081 246.64 60.2287 237.458 53.3939C228.276 46.559 220.615 37.8907 214.959 27.9387C212.246 29.9505 208.956 31.0332 205.579 31.0259H177.062C184.671 49.9913 197.084 66.6507 213.08 79.367C229.076 92.0833 248.106 100.419 268.299 103.555Z" fill="white"/>
<path d="M268.299 65.5849V31.0846C268.3 28.5609 267.803 26.0618 266.838 23.7301C265.872 21.3983 264.457 19.2797 262.672 17.4951C260.888 15.7106 258.769 14.2952 256.437 13.3298C254.106 12.3644 251.607 11.8679 249.083 11.8687H221.397V15.1999C221.4 17.3366 220.968 19.4516 220.129 21.4166C219.29 23.3816 218.061 25.1557 216.515 26.6312C221.986 36.3507 229.412 44.8303 238.325 51.5348C247.237 58.2393 257.444 63.0229 268.299 65.5836V65.5849Z" fill="white"/>
<path d="M135.12 31.0265H117.289C113.093 31.0252 109.069 29.3573 106.103 26.3896C103.136 23.4218 101.47 19.3973 101.47 15.2012V11.8699H75.4955C72.9719 11.8697 70.4729 12.3667 68.1414 13.3324C65.8098 14.2981 63.6913 15.7136 61.9069 17.4982C60.1225 19.2827 58.7071 21.4013 57.7415 23.7329C56.776 26.0645 56.2792 28.5635 56.2796 31.0871V458.68C56.2769 461.204 56.7722 463.703 57.7371 466.035C58.702 468.367 60.1175 470.485 61.9026 472.269C63.6877 474.053 65.8072 475.467 68.1397 476.43C70.4722 477.394 72.9719 477.887 75.4955 477.883H249.086C249.877 477.885 250.668 477.836 251.454 477.738C256.101 477.158 260.378 474.902 263.48 471.393C266.582 467.884 268.296 463.364 268.302 458.68V143.907C205.163 136.593 152.556 91.5432 135.12 31.0265Z" fill="white"/>
<path d="M174.899 31.0266H137.206C154.555 90.4219 206.259 134.612 268.3 141.895V105.6C247.567 102.43 228.029 93.8746 211.639 80.7883C195.248 67.7019 182.579 50.5431 174.898 31.0266H174.899Z" fill="white"/>
<path d="M255.075 351.455H76.9665C76.0921 351.454 75.2537 351.107 74.6354 350.488C74.0171 349.87 73.6693 349.032 73.6682 348.157V303.976C73.6693 303.102 74.0171 302.264 74.6354 301.645C75.2537 301.027 76.0921 300.679 76.9665 300.678H255.075C255.95 300.679 256.788 301.027 257.406 301.645C258.025 302.264 258.373 303.102 258.374 303.976V348.158C258.372 349.032 258.024 349.87 257.406 350.488C256.788 351.107 255.95 351.454 255.075 351.455ZM76.9665 301.997C76.4417 301.997 75.9383 302.205 75.5672 302.576C75.196 302.947 74.9875 303.451 74.9875 303.976V348.157C74.9875 348.682 75.196 349.185 75.5672 349.556C75.9383 349.928 76.4417 350.136 76.9665 350.136H255.075C255.6 350.136 256.103 349.928 256.475 349.556C256.846 349.185 257.054 348.682 257.054 348.157V303.976C257.054 303.451 256.846 302.948 256.475 302.577C256.103 302.206 255.6 301.997 255.075 301.997L76.9665 301.997Z" fill="#E6E6E6"/>
<path d="M100.054 339.919C107.705 339.919 113.907 333.717 113.907 326.066C113.907 318.416 107.705 312.213 100.054 312.213C92.4033 312.213 86.2012 318.416 86.2012 326.066C86.2012 333.717 92.4033 339.919 100.054 339.919Z" fill="#3F3D56"/>
<path d="M132.048 316.831C131.435 316.831 130.848 317.074 130.415 317.507C129.982 317.94 129.739 318.528 129.739 319.14C129.739 319.752 129.982 320.339 130.415 320.772C130.848 321.205 131.435 321.449 132.048 321.449H240.892C241.504 321.449 242.091 321.205 242.524 320.772C242.957 320.339 243.201 319.752 243.201 319.14C243.201 318.528 242.957 317.94 242.524 317.507C242.091 317.074 241.504 316.831 240.892 316.831H132.048Z" fill="#E6E6E6"/>
<path d="M132.048 330.684C131.435 330.684 130.848 330.927 130.415 331.36C129.982 331.793 129.739 332.38 129.739 332.993C129.739 333.605 129.982 334.192 130.415 334.625C130.848 335.058 131.435 335.301 132.048 335.301H240.892C241.504 335.301 242.091 335.058 242.524 334.625C242.957 334.192 243.201 333.605 243.201 332.993C243.201 332.38 242.957 331.793 242.524 331.36C242.091 330.927 241.504 330.684 240.892 330.684H132.048Z" fill="#E6E6E6"/>
<path d="M255.075 425.338H76.9665C76.0921 425.336 75.2537 424.989 74.6354 424.37C74.0171 423.752 73.6693 422.914 73.6682 422.039V377.858C73.6693 376.984 74.0171 376.146 74.6354 375.527C75.2537 374.909 76.0921 374.561 76.9665 374.56H255.075C255.95 374.561 256.788 374.909 257.406 375.527C258.025 376.146 258.373 376.984 258.374 377.858V422.04C258.372 422.914 258.024 423.752 257.406 424.371C256.788 424.989 255.95 425.336 255.075 425.338ZM76.9665 375.879C76.4417 375.879 75.9383 376.087 75.5672 376.458C75.196 376.829 74.9875 377.333 74.9875 377.858V422.039C74.9875 422.564 75.196 423.067 75.5672 423.439C75.9383 423.81 76.4417 424.018 76.9665 424.018H255.075C255.6 424.018 256.103 423.81 256.475 423.439C256.846 423.067 257.054 422.564 257.054 422.039V377.858C257.054 377.334 256.846 376.83 256.475 376.459C256.103 376.088 255.6 375.879 255.075 375.879L76.9665 375.879Z" fill="#E6E6E6"/>
<path d="M100.054 413.801C107.705 413.801 113.907 407.599 113.907 399.948C113.907 392.298 107.705 386.095 100.054 386.095C92.4033 386.095 86.2012 392.298 86.2012 399.948C86.2012 407.599 92.4033 413.801 100.054 413.801Z" fill="#3F3D56"/>
<path d="M132.048 390.713C131.435 390.713 130.848 390.956 130.415 391.389C129.982 391.822 129.739 392.41 129.739 393.022C129.739 393.634 129.982 394.222 130.415 394.655C130.848 395.088 131.435 395.331 132.048 395.331H240.892C241.504 395.331 242.091 395.088 242.524 394.655C242.957 394.222 243.201 393.634 243.201 393.022C243.201 392.41 242.957 391.822 242.524 391.389C242.091 390.956 241.504 390.713 240.892 390.713H132.048Z" fill="#E6E6E6"/>
<path d="M132.048 404.566C131.435 404.566 130.848 404.809 130.415 405.242C129.982 405.675 129.739 406.263 129.739 406.875C129.739 407.487 129.982 408.075 130.415 408.508C130.848 408.941 131.435 409.184 132.048 409.184H240.892C241.504 409.184 242.091 408.941 242.524 408.508C242.957 408.075 243.201 407.487 243.201 406.875C243.201 406.263 242.957 405.675 242.524 405.242C242.091 404.809 241.504 404.566 240.892 404.566H132.048Z" fill="#E6E6E6"/>
<path d="M162.272 259.907C154.042 259.91 145.891 258.292 138.286 255.144C130.681 251.995 123.771 247.38 117.952 241.56C112.132 235.74 107.516 228.83 104.367 221.225C101.219 213.62 99.6008 205.47 99.6043 197.239C99.6043 197.107 99.6043 196.97 99.6122 196.839C99.8041 162.52 127.912 134.571 162.272 134.571C170.502 134.571 178.651 136.192 186.254 139.341C193.857 142.491 200.766 147.107 206.585 152.926C212.404 158.745 217.02 165.654 220.17 173.257C223.319 180.86 224.94 189.009 224.94 197.239C224.94 205.469 223.319 213.618 220.17 221.221C217.02 228.824 212.404 235.733 206.585 241.552C200.766 247.371 193.857 251.987 186.254 255.137C178.651 258.286 170.502 259.907 162.272 259.907ZM162.272 135.89C146.075 135.926 130.547 142.352 119.061 153.772C107.575 165.192 101.059 180.684 100.93 196.88C100.923 197.02 100.924 197.133 100.924 197.239C100.922 209.375 104.519 221.239 111.261 231.33C118.002 241.421 127.585 249.286 138.796 253.931C150.008 258.576 162.345 259.792 174.248 257.425C186.151 255.058 197.084 249.214 205.666 240.632C214.247 232.051 220.091 221.118 222.458 209.215C224.825 197.312 223.609 184.975 218.965 173.763C214.32 162.551 206.454 152.969 196.363 146.228C186.272 139.486 174.408 135.889 162.272 135.89Z" fill="#3F3D56"/>
<path d="M190.653 195.793L147.76 171.029C147.56 170.913 147.332 170.852 147.101 170.852C146.869 170.852 146.641 170.913 146.441 171.029C146.24 171.144 146.074 171.311 145.958 171.512C145.842 171.712 145.781 171.94 145.781 172.171V221.699C145.781 221.93 145.842 222.158 145.958 222.358C146.074 222.559 146.24 222.725 146.441 222.841C146.641 222.957 146.869 223.018 147.101 223.018C147.332 223.018 147.56 222.957 147.76 222.841L190.653 198.077C190.853 197.961 191.02 197.794 191.136 197.594C191.251 197.393 191.312 197.166 191.312 196.934C191.312 196.703 191.251 196.475 191.136 196.275C191.02 196.074 190.853 195.908 190.653 195.792L147.76 171.027C147.56 170.912 147.332 170.851 147.101 170.851C146.869 170.851 146.641 170.912 146.441 171.027C146.24 171.143 146.074 171.31 145.958 171.51C145.842 171.711 145.781 171.938 145.781 172.17V221.699C145.781 221.93 145.842 222.158 145.958 222.358C146.074 222.559 146.24 222.725 146.441 222.841C146.641 222.957 146.869 223.018 147.101 223.018C147.332 223.018 147.56 222.957 147.76 222.841L190.653 198.077C190.853 197.961 191.02 197.794 191.136 197.594C191.251 197.393 191.312 197.166 191.312 196.934C191.312 196.703 191.251 196.475 191.136 196.275C191.02 196.074 190.853 195.908 190.653 195.792V195.793Z" fill="#5246DE"/>
<path d="M503.739 490.612H4V489.173H504L503.739 490.612Z" fill="#3F3D56"/>
<path d="M393.648 241.484C403.825 241.484 412.076 233.233 412.076 223.055C412.076 212.878 403.825 204.627 393.648 204.627C383.47 204.627 375.219 212.878 375.219 223.055C375.219 233.233 383.47 241.484 393.648 241.484Z" fill="#FFB8B8"/>
<path d="M392.457 326.367C392.101 325.259 391.983 324.089 392.111 322.933C392.239 321.777 392.61 320.661 393.2 319.658C393.789 318.655 394.584 317.788 395.532 317.114C396.48 316.44 397.56 315.974 398.701 315.746C399.062 315.677 399.428 315.633 399.796 315.615L419.208 284.459L401.479 267.601C400.793 266.959 400.242 266.187 399.857 265.33C399.473 264.473 399.263 263.548 399.239 262.609C399.216 261.67 399.38 260.735 399.722 259.86C400.063 258.985 400.576 258.187 401.229 257.512C401.882 256.837 402.663 256.299 403.527 255.929C404.39 255.559 405.319 255.364 406.258 255.357C407.198 255.35 408.129 255.529 408.998 255.886C409.868 256.242 410.657 256.768 411.321 257.432L435.803 281.576L435.852 281.636C436.61 282.788 436.975 284.154 436.895 285.531C436.815 286.907 436.293 288.221 435.406 289.278L408.207 321.442C408.288 321.7 408.356 321.962 408.41 322.227C408.637 323.368 408.621 324.543 408.363 325.677C408.104 326.811 407.609 327.878 406.909 328.807C406.209 329.736 405.321 330.507 404.303 331.069C403.285 331.631 402.16 331.971 401.001 332.068C400.766 332.088 400.533 332.099 400.301 332.099C398.557 332.092 396.859 331.534 395.45 330.504C394.041 329.475 392.994 328.027 392.457 326.367Z" fill="#FFB8B8"/>
<path d="M363.297 479.531H354.098L349.722 444.05H363.298L363.297 479.531Z" fill="#FFB8B8"/>
<path d="M366.017 488.823H335.607V488.069C335.607 486.504 335.915 484.954 336.514 483.508C337.113 482.062 337.991 480.748 339.098 479.641C340.205 478.534 341.519 477.656 342.965 477.057C344.412 476.458 345.962 476.15 347.527 476.15H366.018L366.017 488.823Z" fill="#2F2E41"/>
<path d="M454.725 466.813L446.821 471.52L424.909 443.273L436.575 436.327L454.725 466.813Z" fill="#FFB8B8"/>
<path d="M435.687 488.962L435.303 488.318C433.686 485.602 433.214 482.354 433.991 479.29C434.768 476.226 436.731 473.595 439.447 471.978L455.335 462.518L461.817 473.402L435.687 488.962Z" fill="#2F2E41"/>
<path d="M348.561 463.906C342.399 391.347 338.732 323.94 361.26 296.443L361.434 296.23L399.343 311.394L399.406 311.529C399.534 311.808 412.141 339.541 409.201 358.194L418.551 401.208L449.04 452.26C449.286 452.671 449.441 453.13 449.496 453.605C449.551 454.081 449.504 454.563 449.358 455.019C449.213 455.475 448.972 455.895 448.652 456.25C448.332 456.606 447.939 456.89 447.501 457.083L434.251 462.912C433.504 463.238 432.664 463.283 431.886 463.04C431.107 462.797 430.443 462.281 430.014 461.588L396.848 407.505L378.113 366.023C378.012 365.798 377.839 365.612 377.621 365.495C377.403 365.378 377.153 365.335 376.909 365.374C376.665 365.414 376.44 365.532 376.27 365.712C376.1 365.891 375.994 366.122 375.968 366.368L365.585 463.98C365.498 464.809 365.107 465.577 364.487 466.135C363.867 466.692 363.062 467 362.228 466.999H351.927C351.082 466.994 350.269 466.675 349.646 466.103C349.024 465.531 348.637 464.748 348.561 463.906Z" fill="#2F2E41"/>
<path d="M361.388 297.018L361.207 296.932L361.179 296.734C359.762 286.822 361.438 275.809 366.16 264.001C368.488 258.223 372.814 253.472 378.351 250.615C383.887 247.759 390.265 246.986 396.324 248.437C399.814 249.297 403.087 250.873 405.936 253.064C408.786 255.255 411.149 258.013 412.876 261.165C414.582 264.285 415.62 267.725 415.927 271.267C416.234 274.809 415.801 278.376 414.657 281.742C408.705 299.149 400.983 315.436 400.905 315.599L400.743 315.938L361.388 297.018Z" fill="#5246DE"/>
<path d="M334.11 338.123C333.849 336.121 334.316 334.092 335.425 332.405C336.534 330.718 338.211 329.486 340.153 328.931L375.602 260.873C376.057 260.087 376.666 259.401 377.391 258.854C378.116 258.307 378.944 257.911 379.825 257.69C380.705 257.468 381.622 257.426 382.519 257.564C383.417 257.703 384.278 258.02 385.05 258.498C385.823 258.975 386.493 259.602 387.019 260.342C387.545 261.082 387.918 261.921 388.114 262.807C388.311 263.694 388.328 264.611 388.164 265.505C388.001 266.398 387.659 267.249 387.161 268.009L350.873 335.592C350.949 336.003 350.993 336.42 351.005 336.838C351.036 337.981 350.836 339.118 350.416 340.181C349.997 341.245 349.366 342.213 348.563 343.026C347.76 343.84 346.801 344.483 345.743 344.917C344.686 345.351 343.551 345.566 342.408 345.551C341.155 345.533 339.921 345.237 338.795 344.686C337.669 344.135 336.68 343.341 335.897 342.362C334.917 341.144 334.297 339.675 334.107 338.123H334.11Z" fill="#FFB8B8"/>
<path d="M371.304 212.645H400.566V199.89C394.143 197.338 387.858 195.168 384.059 199.89C380.676 199.89 377.432 201.234 375.04 203.626C372.648 206.018 371.304 209.262 371.304 212.645Z" fill="#2F2E41"/>
<path d="M402.186 197.639C419.679 197.639 424.575 219.566 424.575 231.937C424.575 238.836 421.456 241.304 416.553 242.138L414.821 232.903L410.766 242.534C409.389 242.54 407.942 242.514 406.442 242.486L405.067 239.655L402.001 242.435C389.721 242.454 379.796 244.244 379.796 231.936C379.796 219.567 384.091 197.639 402.186 197.639Z" fill="#2F2E41"/>
<path d="M396.973 215.707V198.643C396.973 198.441 396.933 198.241 396.856 198.054C396.779 197.868 396.665 197.698 396.522 197.555C396.379 197.412 396.21 197.299 396.023 197.221C395.836 197.144 395.636 197.104 395.434 197.104H392.356C392.154 197.104 391.954 197.144 391.767 197.221C391.58 197.299 391.411 197.412 391.268 197.555C391.125 197.698 391.012 197.868 390.934 198.054C390.857 198.241 390.817 198.441 390.817 198.643V214.678C388.541 215.047 386.471 216.213 384.975 217.967C383.479 219.721 382.654 221.95 382.649 224.256C382.644 226.561 383.457 228.794 384.945 230.555C386.433 232.316 388.498 233.492 390.772 233.872C393.046 234.252 395.381 233.812 397.361 232.631C399.34 231.449 400.836 229.603 401.581 227.421C402.326 225.239 402.271 222.863 401.427 220.718C400.583 218.572 399.005 216.796 396.973 215.707Z" fill="#5246DE"/>
<path d="M392.869 228.906C395.419 228.906 397.486 226.84 397.486 224.29C397.486 221.741 395.419 219.674 392.869 219.674C390.32 219.674 388.253 221.741 388.253 224.29C388.253 226.84 390.32 228.906 392.869 228.906Z" fill="white"/>
</g>
<defs>
<filter id="filter0_d_11_298" x="0" y="0" width="508" height="498.612" filterUnits="userSpaceOnUse" color-interpolation-filters="sRGB">
<feFlood flood-opacity="0" result="BackgroundImageFix"/>
<feColorMatrix in="SourceAlpha" type="matrix" values="0 0 0 0 0 0 0 0 0 0 0 0 0 0 0 0 0 0 127 0" result="hardAlpha"/>
<feOffset dy="4"/>
<feGaussianBlur stdDeviation="2"/>
<feComposite in2="hardAlpha" operator="out"/>
<feColorMatrix type="matrix" values="0 0 0 0 0 0 0 0 0 0 0 0 0 0 0 0 0 0 0.25 0"/>
<feBlend mode="normal" in2="BackgroundImageFix" result="effect1_dropShadow_11_298"/>
<feBlend mode="normal" in="SourceGraphic" in2="effect1_dropShadow_11_298" result="shape"/>
</filter>
<clipPath id="clip0_11_298">
<rect width="500" height="490.612" fill="white" transform="translate(4)"/>
</clipPath>
</defs>
</svg>
