<svg width="40" height="40" viewBox="0 0 40 40" fill="none" xmlns="http://www.w3.org/2000/svg">
<path d="M40 28.38C40 35.66 35.66 40 28.38 40H26C24.9 40 24 39.1 24 38V26.46C24 25.92 24.44 25.46 24.98 25.46L28.5 25.4C28.78 25.38 29.02 25.18 29.08 24.9L29.78 21.08C29.84 20.72 29.56 20.38 29.18 20.38L24.92 20.44C24.36 20.44 23.92 20 23.9 19.46L23.82 14.56C23.82 14.24 24.08 13.96 24.42 13.96L29.22 13.88C29.56 13.88 29.82 13.62 29.82 13.28L29.74 8.47998C29.74 8.13998 29.48 7.88 29.14 7.88L23.74 7.96002C20.42 8.02002 17.78 10.74 17.84 14.06L17.94 19.56C17.96 20.12 17.52 20.56 16.96 20.58L14.56 20.62C14.22 20.62 13.96 20.88 13.96 21.22L14.02 25.02C14.02 25.36 14.28 25.62 14.62 25.62L17.02 25.58C17.58 25.58 18.02 26.02 18.04 26.56L18.22 37.96C18.24 39.08 17.34 40 16.22 40H11.62C4.34 40 0 35.66 0 28.36V11.62C0 4.34 4.34 0 11.62 0H28.38C35.66 0 40 4.34 40 11.62V28.38Z" fill="white"/>
</svg>
