<svg width="41" height="41" viewBox="0 0 41 41" fill="none" xmlns="http://www.w3.org/2000/svg">
<path d="M28.5638 0H11.7955C4.51184 0 0.169678 4.34216 0.169678 11.6258V28.3741C0.169678 35.6778 4.51184 40.0199 11.7955 40.0199H28.5438C35.8274 40.0199 40.1696 35.6778 40.1696 28.3941V11.6258C40.1896 4.34216 35.8475 0 28.5638 0ZM20.1796 27.7738C15.8975 27.7738 12.4158 24.2921 12.4158 20.01C12.4158 15.7278 15.8975 12.2461 20.1796 12.2461C24.4618 12.2461 27.9435 15.7278 27.9435 20.01C27.9435 24.2921 24.4618 27.7738 20.1796 27.7738ZM32.0256 9.76487C31.9255 10.005 31.7854 10.2251 31.6053 10.4252C31.4052 10.6053 31.1851 10.7454 30.945 10.8454C30.7049 10.9455 30.4448 11.0055 30.1846 11.0055C29.6444 11.0055 29.1441 10.8054 28.7639 10.4252C28.5838 10.2251 28.4438 10.005 28.3437 9.76487C28.2437 9.52475 28.1836 9.26462 28.1836 9.00449C28.1836 8.74436 28.2437 8.48423 28.3437 8.24411C28.4438 7.98398 28.5838 7.78388 28.7639 7.58378C29.2242 7.12355 29.9245 6.90344 30.5648 7.04351C30.7049 7.06352 30.825 7.10354 30.945 7.16357C31.0651 7.20359 31.1851 7.26362 31.3052 7.34366C31.4052 7.40369 31.5053 7.50374 31.6053 7.58378C31.7854 7.78388 31.9255 7.98398 32.0256 8.24411C32.1256 8.48423 32.1856 8.74436 32.1856 9.00449C32.1856 9.26462 32.1256 9.52475 32.0256 9.76487Z" fill="white"/>
</svg>
